<svg id="Layer_1" data-name="Layer 1" xmlns="http://www.w3.org/2000/svg" xmlns:xlink="http://www.w3.org/1999/xlink" viewBox="0 0 1780.12 890.79"><defs><style>.cls-1,.cls-15,.cls-6{fill:#009e4f;}.cls-2{fill:#c6569e;}.cls-3{fill:#ef5a70;}.cls-10,.cls-11,.cls-12,.cls-13,.cls-3,.cls-4,.cls-5,.cls-6,.cls-7,.cls-8,.cls-9{fill-rule:evenodd;}.cls-4{fill:#ed1b25;}.cls-5{fill:#faba1c;}.cls-7{fill:#00aded;}.cls-8{fill:#fefefe;}.cls-9{fill:#d5d5d7;}.cls-10{fill:#5f5f5f;}.cls-11{fill:#434443;}.cls-12{fill:#22201e;}.cls-13{fill:#babcbe;}.cls-14{fill:url(#linear-gradient);}.cls-15{font-size:72px;font-family:MicrosoftUighur, Microsoft Uighur;letter-spacing:0.8em;}</style><linearGradient id="linear-gradient" x1="1217.72" y1="503.63" x2="2155.2" y2="503.63" gradientUnits="userSpaceOnUse"><stop offset="0" stop-color="#faba1c"/><stop offset="0.3" stop-color="#ef5a70"/><stop offset="0.65" stop-color="#009e4f"/><stop offset="0.94" stop-color="#00aded"/></linearGradient></defs><line class="cls-1" x1="1734.96" y1="493.22" x2="744.27" y2="493.22"/><line class="cls-2" x1="1734.96" y1="146.07" x2="414.17" y2="146.07"/><path class="cls-3" d="M870.39,233.54,840.56,517l407.92-185.41c-103-87.6-242.66-125.27-378.09-98Z" transform="translate(-513.52 -224.81)"/><path class="cls-4" d="M811.84,247.9c-12.18,4.4-24.35,9.1-36.53,14.56C657,316.28,573.33,415.69,535.75,530.6L769.31,698Z" transform="translate(-513.52 -224.81)"/><path class="cls-5" d="M628.6,968.32,889,850.18,521.37,586.75a445.47,445.47,0,0,0-7.85,82.89v.54A443.62,443.62,0,0,0,553.35,853.8,451.52,451.52,0,0,0,628.6,968.32Z" transform="translate(-513.52 -224.81)"/><path class="cls-6" d="M1104.35,1091.76c13.63-4.74,27.27-10,40.51-16,121.26-55,206-158,242.17-276.29L1152.14,638Z" transform="translate(-513.52 -224.81)"/><path class="cls-7" d="M1048.34,1106.86l30-283.41L670.43,1008.87c102.88,87.59,242.49,125.26,377.91,98Z" transform="translate(-513.52 -224.81)"/><path class="cls-8" d="M795,422.36C550.07,586.79,667.63,968,960.13,968c292.31,0,410.21-380.89,165.13-545.6-99.08-66.56-231.22-66.52-330.24,0Z" transform="translate(-513.52 -224.81)"/><path class="cls-9" d="M835.3,482.83c-185.15,124.3-96.25,412.46,124.83,412.46s310.07-287.94,124.8-412.46c-74.83-50.31-174.75-50.27-249.63,0Z" transform="translate(-513.52 -224.81)"/><path class="cls-10" d="M860.53,520.73C712.8,619.87,783.71,849.8,960.13,849.8s247.41-229.73,99.58-329.07c-59.75-40.18-139.45-40.14-199.18,0Z" transform="translate(-513.52 -224.81)"/><path class="cls-11" d="M872.27,538.3c-130.34,87.51-67.79,290.35,87.86,290.35S1178.41,626,1048,538.3c-52.7-35.41-123-35.41-175.72,0Z" transform="translate(-513.52 -224.81)"/><path class="cls-12" d="M911.36,597c-72.29,48.53-37.59,161.05,48.77,161.05s121.1-112.44,48.73-161.05a88,88,0,0,0-97.5,0Z" transform="translate(-513.52 -224.81)"/><path class="cls-13" d="M904.64,640.6c-34.17-23-17.77-76.12,23.06-76.12s57.23,53.13,23,76.12a41.63,41.63,0,0,1-46.09,0Z" transform="translate(-513.52 -224.81)"/><path class="cls-8" d="M999.49,757c-16.82-11.28-8.74-37.45,11.33-37.45S1039,745.76,1022.14,757a20.39,20.39,0,0,1-22.65,0Z" transform="translate(-513.52 -224.81)"/><path class="cls-14" d="M1357.3,521.76l49.13,2.58q-3.47,28.17-23.8,43.2t-50,15q-35.67,0-57.6-20.65t-21.94-57q0-36,20.78-58.13t58-22.11q34.75,0,53.43,16.84t21.1,44.66l-50.16,2.36q0-15.37-6.73-22.22a21.56,21.56,0,0,0-15.85-6.85q-25.39,0-25.4,44.67,0,25,6.61,34t18.54,9Q1354.73,547.12,1357.3,521.76Z" transform="translate(-513.52 -224.81)"/><path class="cls-14" d="M1501.74,582.58q-36.95,0-60.23-21.43t-23.28-57.35q0-34.33,22.26-56.73t61.76-22.39q36.57,0,59.59,21.1t23,56.34q0,36.46-23.22,58.47T1501.74,582.58Zm-.26-34.79q13.61,0,19.57-10.38t6-38q0-39.94-24.5-39.95-26.43,0-26.43,45.57Q1476.08,547.79,1501.48,547.79Z" transform="translate(-513.52 -224.81)"/><path class="cls-14" d="M1730.33,542.63v37.6H1607.57V427h53.75V542.63Z" transform="translate(-513.52 -224.81)"/><path class="cls-14" d="M1822.44,582.58q-36.95,0-60.23-21.43t-23.28-57.35q0-34.33,22.26-56.73T1823,424.68q36.57,0,59.59,21.1t23,56.34q0,36.46-23.21,58.47T1822.44,582.58Zm-.26-34.79q13.6,0,19.57-10.38t6-38q0-39.94-24.5-39.95-26.43,0-26.43,45.57Q1796.78,547.79,1822.18,547.79Z" transform="translate(-513.52 -224.81)"/><path class="cls-14" d="M2084.13,580.23h-59.59L1999,521.64h-17v58.59h-53.75V427h91.46q30.29,0,47,12.4t16.74,32.71a44.19,44.19,0,0,1-6.16,23.4q-6.15,10.15-24.89,17.9ZM1982,488.88h23q10.14,0,16.29-3.71a11.94,11.94,0,0,0,6.16-10.88q0-14.7-20.65-14.71H1982Z" transform="translate(-513.52 -224.81)"/><path class="cls-14" d="M2091.44,535.9l49.9-7.86q6.28,18.53,32.33,18.52,20.26,0,20.27-9.43,0-4.93-4.69-7.69t-16.74-4.87q-46.05-7.73-59.14-20.19t-13.08-29.29q0-21.68,18.8-36t54.07-14.37q53.49,0,70.68,37.6l-44.51,11.78q-6.93-15.37-28.1-15.37-17.58,0-17.57,9.54a7.33,7.33,0,0,0,4,6.62q4,2.36,15.4,4.48,31.44,5.82,44.65,10.29a47.63,47.63,0,0,1,22.06,15.31,39.13,39.13,0,0,1,8.84,25.55q0,23.24-21.55,37.67t-56.57,14.43Q2106.46,582.58,2091.44,535.9Z" transform="translate(-513.52 -224.81)"/><text class="cls-15" transform="translate(766.48 428.51)">PHOTOGRAPHY</text></svg>